# xmcd CD database file
#
# Track frame offsets:
#	150
#	16283
#	35843
#	56753
#	78865
#	100893
#	120570
#	141375
#	154918
#	182720
#	203645
#	214483
#	230828
#	252015
#	282370
#	289560
#
# Disc length: 4092 seconds
#
# Revision: 3
# Processed by: cddbd v1.4PL0 Copyright (c) Steve Scherf et al.
# Submitted via: CDex 1.51
#
DISCID=ed0ffa10
DTITLE=Louis Armstrong - An Evening With Louis Armstrong
DYEAR=1986
DGENRE=Jazz
TTITLE0=Sleepy Time-Down South
TTITLE1=Indiana
TTITLE2=Someday
TTITLE3=Ole Miss
TTITLE4=Tin Roof Blues
TTITLE5=My Bucket's Got A Hole In It
TTITLE6=Perdido
TTITLE7=Dardanella
TTITLE8=How High The Moon
TTITLE9=The Gypsy
TTITLE10=Undecided
TTITLE11=Blues
TTITLE12=That's My Desire
TTITLE13=Kokomo
TTITLE14=Sleepy Time-Down South
TTITLE15=Didn't He Ramble
EXTD=GNPD 11001\n\nLouis Armstrong:  trumpet and vocals\nTrummy Young:  trombone\nEdmund Hall:  clarinet\nBilly Kyle:  piano\nArvell Shaw:  bass\nBarrett Deems:  drums\nVelma Middleton:  vocal YEAR: 1986
EXTT0=
EXTT1=
EXTT2=
EXTT3=
EXTT4=
EXTT5=
EXTT6=
EXTT7=
EXTT8=
EXTT9=
EXTT10=
EXTT11=
EXTT12=
EXTT13=
EXTT14=
EXTT15=
PLAYORDER=
